<svg width="20" height="20" viewBox="0 0 20 20" fill="none" xmlns="http://www.w3.org/2000/svg">
<path d="M19.4413 9.48948C19.9481 8.99569 20.127 8.27096 19.9082 7.59846C19.6899 6.92569 19.1192 6.44456 18.419 6.3428L14.0952 5.71456C13.8757 5.68253 13.6861 5.54475 13.588 5.346L11.6543 1.42772C11.3412 0.793542 10.7073 0.399597 9.99997 0.399597C9.29262 0.399597 8.65872 0.793542 8.34559 1.42772C8.34559 1.42776 6.41196 5.34596 6.41196 5.34596C6.31383 5.54479 6.12419 5.68257 5.90504 5.71452L1.58106 6.34276C0.880748 6.44456 0.310084 6.92569 0.0918414 7.59811C-0.127026 8.27096 0.0518414 8.99573 0.558521 9.48936L3.68735 12.5395C3.84606 12.6942 3.91848 12.9169 3.8811 13.1352L3.14235 17.442C3.02297 18.1392 3.30419 18.8306 3.87626 19.2461C4.44844 19.6619 5.19297 19.7157 5.81938 19.3867L9.68665 17.3534C9.88282 17.2503 10.1171 17.2504 10.3131 17.3533L14.1806 19.3867C14.807 19.7158 15.5516 19.6619 16.1238 19.2461C16.6958 18.8305 16.977 18.1392 16.8577 17.442L16.1189 13.1354C16.0815 12.9169 16.1539 12.6942 16.3127 12.5394L19.4413 9.48948ZM14.9638 13.3332L15.7027 17.6401C15.7468 17.8981 15.6468 18.1442 15.435 18.298C15.3174 18.3835 15.1812 18.4286 15.041 18.4286C14.9796 18.4286 14.8618 18.4208 14.7256 18.3492L10.8584 16.316C10.5944 16.1774 10.2977 16.1042 10 16.1042C9.70219 16.1042 9.40532 16.1775 9.14165 16.316L5.27403 18.3495C5.00836 18.489 4.74251 18.427 4.56512 18.2981C4.35325 18.1442 4.25321 17.8981 4.29743 17.6398L5.03614 13.3333C5.13864 12.7344 4.94012 12.1241 4.50524 11.7003L1.37657 8.65026C1.18883 8.46733 1.12524 8.20964 1.20626 7.96065C1.28723 7.7112 1.49028 7.54018 1.74965 7.50249L6.07348 6.87425C6.67497 6.78651 7.19407 6.40917 7.46282 5.86468L9.39641 1.94655C9.51235 1.71171 9.73801 1.57151 10 1.57151C10.262 1.57151 10.4877 1.71171 10.6036 1.94655L12.5372 5.86464C12.806 6.40921 13.3252 6.78655 13.9261 6.87421C14.8847 7.01339 16.7206 7.27995 18.2503 7.50249C18.5098 7.54018 18.7128 7.71132 18.7936 7.96026C18.8748 8.20975 18.8111 8.46737 18.6236 8.65014L15.4947 11.7003C15.0598 12.1241 14.8613 12.7345 14.9638 13.3332Z" fill="#3BC8E1"/>
</svg>
