<svg width="43" height="43" viewBox="0 0 43 43" fill="none" xmlns="http://www.w3.org/2000/svg">
<circle cx="21.5" cy="21.5" r="21.5" fill="#F3F3F3"/>
<g clip-path="url(#clip0_258_171)">
<path d="M17.5898 22.0354L24.3352 28.7786C24.6312 29.0738 25.1107 29.0738 25.4074 28.7786C25.7034 28.4833 25.7034 28.0038 25.4074 27.7086L19.1971 21.5004L25.4067 15.2923C25.7027 14.997 25.7027 14.5175 25.4067 14.2215C25.1107 13.9263 24.6304 13.9263 24.3344 14.2215L17.589 20.9646C17.2976 21.2568 17.2976 21.7439 17.5898 22.0354Z" fill="#332B2C"/>
<path d="M17.5898 22.0354L24.3352 28.7786C24.6312 29.0738 25.1107 29.0738 25.4074 28.7786C25.7034 28.4833 25.7034 28.0038 25.4074 27.7086L19.1971 21.5004L25.4067 15.2923C25.7027 14.997 25.7027 14.5175 25.4067 14.2215C25.1107 13.9263 24.6304 13.9263 24.3344 14.2215L17.589 20.9646C17.2976 21.2568 17.2976 21.7439 17.5898 22.0354Z" fill="black" fill-opacity="0.2"/>
</g>
<defs>
<clipPath id="clip0_258_171">
<rect width="15" height="15" fill="white" transform="translate(14 14)"/>
</clipPath>
</defs>
</svg>
