<svg width="38" height="53" viewBox="0 0 38 53" fill="none" xmlns="http://www.w3.org/2000/svg">
<g clip-path="url(#clip0_487_559)">
<path fill-rule="evenodd" clip-rule="evenodd" d="M25.7998 26.5867C26.4427 25.9346 26.8859 24.6747 26.8511 23.6885C26.7815 21.8485 26.7908 19.9713 26.5726 18.1429C26.4171 16.8481 26.1526 15.8828 25.7998 15.8828" fill="white"/>
<path fill-rule="evenodd" clip-rule="evenodd" d="M30.2812 10.068V3.16263C29.9888 4.27408 29.4039 5.26719 28.6102 6.05844C27.4522 7.21629 25.8555 7.93328 24.0964 7.9356H24.0894H24.0871C22.328 7.9356 20.7266 7.21629 19.5663 6.05611C18.4082 4.89826 17.6888 3.29953 17.6888 1.54302V1.53838C17.6888 1.34579 17.8466 1.18801 18.0392 1.18801C18.2318 1.18801 18.3896 1.34579 18.3896 1.53838V1.54302C18.392 3.10926 19.0302 4.53396 20.0606 5.5642C21.091 6.59444 22.5159 7.23486 24.0848 7.23486H24.0871H24.0941C25.6606 7.23486 27.0855 6.59444 28.1159 5.5642C29.1463 4.53396 29.7869 3.10926 29.7869 1.5407V1.53838V1.53374C29.7869 1.0047 29.7126 0.491898 29.5757 0.00462341H13.653C13.5787 0.5035 13.5416 1.01398 13.5416 1.53374V1.53838V1.5407C13.5416 4.44579 14.7275 7.08171 16.6375 8.99137C18.5475 10.901 21.1838 12.0844 24.0848 12.0867H24.0894H24.0917C26.4032 12.0821 28.5406 11.3349 30.2812 10.068Z" fill="white"/>
<path fill-rule="evenodd" clip-rule="evenodd" d="M15.4701 31.6984H20.1998L20.4435 25.2246C20.4435 23.6328 20.3971 23.0179 19.4409 22.1292C19.0882 21.7997 18.8677 21.3403 18.8654 20.8322V20.8275L19.13 15.3677C19.13 15.196 19.2692 15.0591 19.4409 15.0591C19.6127 15.0591 19.7496 15.196 19.7496 15.3677L19.485 20.8275V20.8322C19.4874 21.1361 19.6243 21.4192 19.8471 21.6257C20.0095 21.7765 20.2138 21.8879 20.4435 21.9436V15.3654C20.4435 15.1821 20.592 15.0336 20.7754 15.0336C20.9587 15.0336 21.1096 15.1821 21.1096 15.3654V21.9413C21.337 21.8856 21.5412 21.7765 21.7037 21.6257C21.9288 21.4169 22.068 21.1338 22.068 20.8275V20.8252L21.8313 15.3654C21.8313 15.1937 21.9706 15.0568 22.14 15.0568C22.3094 15.0568 22.4486 15.1937 22.4486 15.3654L22.6877 20.8252V20.8275C22.6854 21.338 22.4672 21.7997 22.1098 22.1292C21.1792 22.9924 21.1096 23.6073 21.1096 25.1434L21.4762 31.6961H25.1338V15.4188C25.1338 15.0359 25.6304 14.8433 25.9855 15.0916C26.7745 15.6415 27.0994 16.9224 27.2572 18.1521C27.4916 19.9713 27.5125 21.8322 27.5288 23.6653C27.5404 24.8557 27.4522 25.7745 26.1433 27.3152C25.9251 27.5728 25.7998 27.9023 25.7998 28.2875C25.9251 28.8606 26.1154 29.4198 26.1781 30.0022L26.3545 31.6984H30.2812V10.9219C28.5035 12.0983 26.3754 12.7828 24.0941 12.7852H24.0917H24.0871C20.9912 12.7852 18.1808 11.5206 16.1432 9.48561C14.1055 7.44834 12.8407 4.63607 12.8407 1.53839V1.53607V1.53143C12.8407 1.01399 12.8755 0.503509 12.9428 0.00231171H11.4901C11.6734 3.42716 12.307 6.62925 14.3747 9.952C18.1761 16.0499 15.498 24.9345 15.4701 31.6984Z" fill="white"/>
<path fill-rule="evenodd" clip-rule="evenodd" d="M7.10382 9.597C7.18737 9.56915 7.2918 9.54595 7.48907 9.52971C8.8235 9.41833 10.8658 9.54131 11.9751 9.9845C12.2164 10.0796 12.4416 10.1933 12.6365 10.3209C12.6667 10.3395 12.7595 10.4602 12.7711 10.495C14.7762 16.5325 12.908 18.709 11.1907 20.7115C10.2624 21.7928 9.3828 22.8207 9.28765 24.4357C9.28997 24.5123 9.29229 24.5911 9.29229 24.6724C9.29229 24.7095 9.28765 24.7443 9.27837 24.7745V31.5847C9.27837 31.6241 9.2714 31.6613 9.25748 31.6961H14.8041C14.8319 25.0854 17.5286 16.2634 13.8131 10.2977C11.6641 6.84969 11.012 3.54783 10.8286 0H7.10382" fill="white"/>
<path fill-rule="evenodd" clip-rule="evenodd" d="M7.10382 20.1477C7.14327 20.1917 7.18273 20.2358 7.21986 20.2799C7.28948 20.3611 7.36142 20.4423 7.43105 20.5236C7.4821 20.5653 7.53316 20.6048 7.58886 20.6396C7.69561 20.7138 7.81165 20.7788 7.93465 20.8322C7.98339 20.853 8.02748 20.8739 8.06461 20.8879V20.8855C8.33846 20.9899 8.6332 21.048 8.92793 21.048H8.93489C9.35959 21.048 9.78429 20.9296 10.144 20.7231L10.1463 20.7254C10.209 20.6883 10.2763 20.6465 10.3459 20.5955C10.4086 20.5514 10.4689 20.5004 10.5269 20.447H10.5293L10.5339 20.4423L10.5409 20.4493C10.578 20.4075 10.6151 20.3635 10.6499 20.3217C10.6615 20.3078 10.6755 20.2915 10.6871 20.2776C12.2768 18.426 14.0034 16.4096 12.177 10.8152C12.0401 10.7363 11.8915 10.662 11.7291 10.5971C10.7265 10.1956 9.30157 10.0866 8.05069 10.191C7.7165 10.2189 7.39624 10.2629 7.10382 10.3163" fill="white"/>
<path fill-rule="evenodd" clip-rule="evenodd" d="M7.10382 31.6984H8.63088C8.61927 31.6636 8.61231 31.6265 8.61231 31.587V24.6724V24.4102C8.61231 24.3962 8.61463 24.3823 8.61463 24.3684C8.51716 23.0179 7.86271 22.0805 7.10382 21.1686" fill="white"/>
<path fill-rule="evenodd" clip-rule="evenodd" d="M37.7145 48.8203V49.4259H36.6354V52.1361H35.9485V49.4259H34.8763V48.8203M33.6068 48.8203V52.1941H33.5882L31.6295 50.2868V52.1361H30.9379V48.7623H30.9565L32.9152 50.6696V48.8203H33.6068ZM28.1136 50.0919L27.6935 51.085H28.5336L28.1136 50.0919ZM28.1229 48.7623L29.7242 52.1361H28.9676L28.7518 51.6233H27.4777L27.2619 52.1361H26.503L28.1043 48.7623H28.1229ZM24.1869 49.4166H23.6369V50.3726H24.1869C24.3517 50.3726 24.4839 50.3309 24.5814 50.2497C24.6789 50.1661 24.7276 50.0501 24.7276 49.8946C24.7276 49.7461 24.6789 49.6278 24.5814 49.5443C24.4839 49.4584 24.3517 49.4166 24.1869 49.4166ZM24.2495 48.8203C24.5814 48.8203 24.8599 48.9178 25.0873 49.108C25.3148 49.3006 25.4285 49.5628 25.4285 49.8923C25.4285 50.1197 25.3751 50.3123 25.2637 50.477C25.1546 50.6395 25.0061 50.7648 24.8204 50.8483L25.5909 52.1338H24.7856L24.0917 50.9643H23.6369V52.1338H22.9522V48.8203H24.2495ZM21.467 48.8203V50.9458C21.467 51.3309 21.3556 51.6349 21.1351 51.86C20.9146 52.0851 20.599 52.1964 20.1905 52.1964C19.7821 52.1964 19.4665 52.0851 19.246 51.86C19.0255 51.6372 18.9141 51.3309 18.9141 50.9458V48.8203H19.6034V50.8994C19.6034 51.1035 19.6545 51.266 19.7519 51.3866C19.8517 51.5073 19.9979 51.5676 20.1905 51.5676C20.3785 51.5676 20.5247 51.5073 20.6292 51.3866C20.7313 51.266 20.7823 51.1035 20.7823 50.8994V48.8203H21.467ZM16.1292 50.0919L15.7092 51.085H16.547L16.1292 50.0919ZM16.1362 48.7623L17.7375 52.1361H16.9809L16.7651 51.6233H15.4933L15.2775 52.1361H14.5209L16.1223 48.7623H16.1362ZM13.5578 48.8203V49.4259H12.4787V52.1361H11.7917V49.4259H10.7219V48.8203H13.5578ZM8.40577 48.7623C8.87688 48.7623 9.26444 48.8783 9.56614 49.1104L9.20875 49.6788C8.96739 49.4863 8.69818 49.3911 8.40112 49.3911C8.0855 49.3911 7.92769 49.5118 7.92769 49.7508C7.92769 49.8482 7.96946 49.9225 8.05533 49.9805C8.1412 50.0362 8.30597 50.0849 8.54965 50.1313C8.96507 50.2195 9.25748 50.3401 9.42457 50.4979C9.59167 50.6557 9.67754 50.8669 9.67754 51.1314C9.67754 51.4539 9.56614 51.7115 9.34103 51.9064C9.11592 52.1013 8.8119 52.1964 8.42201 52.1964C7.9068 52.1964 7.47978 52.0502 7.13631 51.7532L7.50995 51.1801C7.62135 51.2961 7.76292 51.3913 7.93465 51.4609C8.10639 51.5305 8.2758 51.5676 8.44522 51.5676C8.61927 51.5676 8.75388 51.5351 8.84903 51.4702C8.94418 51.4052 8.99059 51.3124 8.99059 51.194C8.99059 51.0943 8.94418 51.013 8.85135 50.9527C8.75852 50.8924 8.59142 50.8413 8.35007 50.7949C7.94161 50.7068 7.65152 50.5815 7.48675 50.4167C7.31965 50.2497 7.23611 50.0385 7.23611 49.7809C7.23611 49.4793 7.34286 49.2333 7.55637 49.0454C7.76988 48.8574 8.05301 48.7623 8.40577 48.7623ZM6.00147 48.8203V49.4468H4.54867V50.1661H5.80652V50.7485H4.54867V51.5119H6.0386V52.1384H3.85941V48.8203H6.00147ZM1.23696 49.4166H0.686943V50.3726H1.23696C1.40173 50.3726 1.53402 50.3309 1.63149 50.2497C1.72896 50.1661 1.7777 50.0501 1.7777 49.8946C1.7777 49.7461 1.72896 49.6278 1.63149 49.5443C1.53402 49.4584 1.40173 49.4166 1.23696 49.4166ZM1.29962 48.8203C1.62917 48.8203 1.90998 48.9178 2.13741 49.108C2.36485 49.3006 2.47856 49.5628 2.47856 49.8923C2.47856 50.1197 2.42287 50.3123 2.31379 50.477C2.20471 50.6395 2.05619 50.7648 1.86821 50.8483L2.6387 52.1338H1.83572L1.14181 50.9643H0.684622V52.1338H0V48.8203H1.29962Z" fill="white"/>
<path fill-rule="evenodd" clip-rule="evenodd" d="M35.2638 45.0381H37.9977V46.3654H33.8575V38.3601H37.884V39.6874H35.2638V41.6667H37.6658V42.9475H35.2638M26.387 38.3601H27.8165V46.3654H26.4334V43.8617C26.4798 42.6644 26.5169 41.7455 26.5471 41.1051L26.4891 41.0819C26.4032 41.3186 26.2802 41.6736 26.1131 42.1516C25.9437 42.6296 25.823 42.973 25.7464 43.1865L25.208 44.6042H23.8109L23.2748 43.1865C22.9383 42.2259 22.69 41.5251 22.5299 41.0819L22.4718 41.1051C22.502 41.7455 22.5415 42.6621 22.5856 43.8617V46.3654H21.214V38.3601H22.632L23.9362 41.4926C24.1892 42.1098 24.3702 42.6064 24.4839 42.98H24.5304C24.6209 42.683 24.8088 42.1864 25.0897 41.4926L26.387 38.3601ZM12.4973 43.5763H13.8015L13.4813 42.089C13.4209 41.7827 13.3142 41.1283 13.161 40.1213H13.1262C13.0194 40.9543 12.9173 41.6086 12.8175 42.089L12.4973 43.5763ZM14.4072 46.3654L14.087 44.9128H12.2118L11.8915 46.3654H10.4271L12.3951 38.3601H13.906L15.874 46.3654H14.4072ZM3.68768 38.3601H5.07085V46.3654H3.67608L2.13046 42.8872C1.68023 41.7223 1.43191 41.068 1.38781 40.9311L1.353 40.9659C1.46672 41.9729 1.52474 43.0055 1.52474 44.0659V46.3654H0.141571V38.3601H1.53634L3.20728 42.1214C3.28387 42.3117 3.39527 42.5994 3.54379 42.9846C3.69232 43.3698 3.79444 43.6274 3.84781 43.7573L3.88262 43.7225C3.75266 42.7015 3.68768 41.7247 3.68768 40.7942V38.3601Z" fill="white"/>
</g>
<defs>
<clipPath id="clip0_487_559">
<rect width="38" height="52.1941" fill="white"/>
</clipPath>
</defs>
</svg>
