<svg width="26" height="26" viewBox="0 0 26 26" fill="none" xmlns="http://www.w3.org/2000/svg">
<g clip-path="url(#clip0_258_820)">
<path d="M11.9844 17.5693V14.0146H8.42969C7.86871 14.0146 7.41406 13.56 7.41406 12.999C7.41406 12.4382 7.86871 11.9834 8.42969 11.9834H11.9844V8.4287C11.9844 7.86792 12.439 7.41307 13 7.41307C13.561 7.41307 14.0156 7.86792 14.0156 8.4287V11.9834H17.5703C18.1313 11.9834 18.5859 12.4382 18.5859 12.999C18.5859 13.56 18.1313 14.0146 17.5703 14.0146H14.0156V17.5693C14.0156 18.1303 13.561 18.5849 13 18.5849C12.439 18.5849 11.9844 18.1303 11.9844 17.5693ZM22.1924 3.8076C19.737 1.35225 16.4724 0 13 0C9.52763 0 6.26295 1.35225 3.8076 3.8076C1.35225 6.26295 0 9.52763 0 13C0 16.4724 1.35225 19.737 3.8076 22.1924C6.26295 24.6478 9.52763 26 13 26C15.3772 26 17.7032 25.3521 19.7265 24.1264C20.2064 23.8358 20.3597 23.2114 20.0691 22.7318C19.7785 22.2519 19.1539 22.0986 18.6742 22.3892C16.9683 23.4225 15.0061 23.9688 13 23.9688C6.95187 23.9688 2.03125 19.0481 2.03125 13C2.03125 6.95187 6.95187 2.03125 13 2.03125C19.0481 2.03125 23.9688 6.95187 23.9688 13C23.9688 15.1628 23.3257 17.2678 22.1089 19.088C21.7971 19.5542 21.9224 20.185 22.3888 20.4968C22.8549 20.8084 23.4857 20.683 23.7976 20.2169C25.2383 18.0617 26 15.566 26 13C26 9.52763 24.6478 6.26295 22.1924 3.8076Z" fill="#3BC8E1"/>
</g>
<defs>
<clipPath id="clip0_258_820">
<rect width="26" height="26" fill="white"/>
</clipPath>
</defs>
</svg>
