<svg width="20" height="21" viewBox="0 0 20 21" fill="none" xmlns="http://www.w3.org/2000/svg">
<g clip-path="url(#clip0_288_1556)">
<path d="M9.21875 13.6254V10.891H6.48438C6.05286 10.891 5.70312 10.5413 5.70312 10.1098C5.70312 9.67841 6.05286 9.32852 6.48438 9.32852H9.21875V6.59415C9.21875 6.16278 9.56848 5.8129 10 5.8129C10.4315 5.8129 10.7812 6.16278 10.7812 6.59415V9.32852H13.5156C13.9471 9.32852 14.2969 9.67841 14.2969 10.1098C14.2969 10.5413 13.9471 10.891 13.5156 10.891H10.7812V13.6254C10.7812 14.0569 10.4315 14.4066 10 14.4066C9.56848 14.4066 9.21875 14.0569 9.21875 13.6254ZM17.0711 3.03946C15.1823 1.15073 12.6711 0.110535 10 0.110535C7.32895 0.110535 4.81766 1.15073 2.92892 3.03946C1.04019 4.92819 0 7.43948 0 10.1105C0 12.7816 1.04019 15.2929 2.92892 17.1816C4.81766 19.0703 7.32895 20.1105 10 20.1105C11.8286 20.1105 13.6179 19.6122 15.1743 18.6693C15.5434 18.4458 15.6613 17.9655 15.4378 17.5965C15.2142 17.2274 14.7337 17.1094 14.3648 17.333C13.0525 18.1278 11.5431 18.548 10 18.548C5.3476 18.548 1.5625 14.7629 1.5625 10.1105C1.5625 5.45813 5.3476 1.67303 10 1.67303C14.6524 1.67303 18.4375 5.45813 18.4375 10.1105C18.4375 11.7742 17.9428 13.3935 17.0068 14.7936C16.767 15.1522 16.8634 15.6374 17.2221 15.8773C17.5807 16.117 18.0659 16.0206 18.3058 15.662C19.4141 14.0041 20 12.0844 20 10.1105C20 7.43948 18.9598 4.92819 17.0711 3.03946Z" fill="white"/>
</g>
<defs>
<clipPath id="clip0_288_1556">
<rect width="20" height="20" fill="white" transform="translate(0 0.110535)"/>
</clipPath>
</defs>
</svg>
